<svg xmlns="http://www.w3.org/2000/svg" viewBox="0 0 64 64" width="64" height="64">
  <path fill="#808080" d="M54,46c0,2.2-1.8,4-4,4H14c-2.2,0-4-1.8-4-4l4-22c0-2.2,1.8-4,4-4h28c2.2,0,4,1.8,4,4L54,46z"/>
  <path fill="#666666" d="M54,46c0,2.2-1.8,4-4,4H14c-2.2,0-4-1.8-4-4l0.5-2.8c0.5,1.6,2,2.8,3.8,2.8h35.5c1.8,0,3.3-1.2,3.8-2.8
    L54,46z"/>
  <path fill="#999999" d="M50,24c0-2.2-1.8-4-4-4H18c-2.2,0-4,1.8-4,4l-0.5,2.8c0.5-1.6,2-2.8,3.8-2.8h29.5c1.8,0,3.3,1.2,3.8,2.8
    L50,24z"/>
  <path fill="#4d4d4d" d="M47,33H17c-1.1,0-1.9-0.9-1.8-2l0.2-2c0.1-1.1,1.1-2,2.1-2h29c1.1,0,2,0.9,2.1,2l0.2,2
    C48.9,32.1,48.1,33,47,33z"/>
  <path fill="#cccccc" d="M35,33c0,1.1-0.9,2-2,2h-2c-1.1,0-2-0.9-2-2l0-6c0-1.1,0.9-2,2-2h2c1.1,0,2,0.9,2,2L35,33z"/>
  <path fill="#e6e6e6" d="M31,29v6c0,1.1-0.9,2-2,2h-2c-1.1,0-2-0.9-2-2v-6c0-1.1,0.9-2,2-2h2C30.1,27,31,27.9,31,29z"/>
  <path fill="#e6e6e6" d="M39,29v6c0,1.1-0.9,2-2,2h-2c-1.1,0-2-0.9-2-2v-6c0-1.1,0.9-2,2-2h2C38.1,27,39,27.9,39,29z"/>
</svg>