<svg xmlns="http://www.w3.org/2000/svg" viewBox="0 0 64 64" width="64" height="64">
  <path fill="#825e45" d="M53.6,21.2c0,0-10.6-3.4-17.2-2.4c-6.6,1-10.4,4.6-14.4,7.8c-2.7,2.2-5.2,4.6-6.8,7.6c-0.8,1.5-1.4,3.1-2,4.6
    c-0.8,2-1.7,4-3.4,5.4c-0.5,0.4-1.2,0.7-1.6,1.2c-0.9,1-0.9,2.5-0.5,3.8c0.9,3,3.9,5.1,7,5.1c3.3,0,6.4-2.2,8.5-4.8
    c2.1-2.6,3.3-5.7,4.9-8.6c1.6-2.9,3.6-5.7,6.4-7.5c3.6-2.3,8.1-2.7,12.3-3.1c3.2-0.3,6.6-0.6,9.2-2.5c1.4-1,2.7-2.4,2.4-4
    C58,21.5,55.9,21.9,53.6,21.2z"/>
  <path fill="#5e4130" d="M53.6,21.2c0,0-10.6-3.4-17.2-2.4l0,0c0.1,0,13,1.6,17.8,3.8c1.7,0.8,3.2,1.9,3.3,3.8c0.1,1.1-0.5,2.1-1.3,2.9
    c-2.3,2.7-6.1,3.6-9.7,4c-4.7,0.5-9.5,0.8-13.8,2.8c-3.4,1.6-6.1,4.3-8.2,7.4c-2.1,3.1-3.4,6.5-5.4,9.7c-1,1.6-2.1,3-3.5,4.2
    c-1.4,1.1-3.1,1.8-4.8,1.8c-3.1,0-6.1-2.1-7-5.1c-0.4-1.3-0.4-2.8,0.5-3.8c0.4-0.5,1.1-0.8,1.6-1.2c1.7-1.4,2.6-3.4,3.4-5.4
    c0.6-1.5,1.1-3.1,2-4.6c1.6-3,4.1-5.4,6.8-7.6c4-3.2,7.8-6.8,14.4-7.8C39.9,17.3,48.1,19.7,53.6,21.2z"/>
  <path fill="#a37d5b" d="M20,41.6c0,0-0.8,1.4-1.2,3.4c-0.4,2-0.4,4.1-0.4,4.1s-1-0.3-2.2-0.1c-1.1,0.1-2.3,0.6-2.3,0.6s0-0.9-0.3-2.2
    c-0.3-1.3-0.9-3-0.9-3s1-0.5,2.1-0.7c1.1-0.2,2.3,0,2.3,0s0.5-0.9,1.2-1.5C19,41.5,20,41.6,20,41.6z"/>
</svg>
