<svg xmlns="http://www.w3.org/2000/svg" viewBox="0 0 64 64" width="64" height="64">
  <path fill="#f0d6b9" d="M12,18c0,0-2,2-2,5v26c0,3,2,5,2,5h40c0,0,2-2,2-5V23c0-3-2-5-2-5H12z"/>
  <path fill="#d3b78c" d="M52,18H12c0,0-1.1,1.1-1.7,3H53.7C53.1,19.1,52,18,52,18z"/>
  <path fill="#d3b78c" d="M10.3,51c0.6,1.9,1.7,3,1.7,3h40c0,0,1.1-1.1,1.7-3H10.3z"/>
  <path fill="#825e45" d="M54,23v26c0,3-2,5-2,5h2c0,0,2-2,2-5V23c0-3-2-5-2-5h-2C52,18,54,20,54,23z"/>
  <path fill="#e8bf97" d="M10,23v26c0,3,2,5,2,5h2c0,0-2-2-2-5V23c0-3,2-5,2-5h-2C12,18,10,20,10,23z"/>
  <path fill="#e25c45" d="M12,22c0,0-1,1-1,3v22c0,2,1,3,1,3h40c0,0,1-1,1-3V25c0-2-1-3-1-3H12z"/>
</svg>