<svg xmlns="http://www.w3.org/2000/svg" viewBox="0 0 64 64" width="64" height="64">
  <path fill="#a37d5b" d="M52,30c0-6.6-5.4-12-12-12H24c-6.6,0-12,5.4-12,12v14c0,1.7,1.3,3,3,3h34c1.7,0,3-1.3,3-3V30z"/>
  <path fill="#825e45" d="M52,30c0-6.6-5.4-12-12-12H24c-6.6,0-12,5.4-12,12v2h40V30z"/>
  <path fill="#5e4130" d="M15,40v4c0,1.7,1.3,3,3,3h28c1.7,0,3-1.3,3-3v-4H15z"/>
  <path fill="#e8bf97" d="M24,18c-4.9,0-9.1,3-11,7.2c0.5,0,1-0.2,1.4-0.5c1-0.8,1.6-2,2.2-3.2c0.3-0.5,0.5-1.1,1-1.4
    c0.6-0.5,1.4-0.6,2.1-0.8c1.8-0.4,3.5-1.3,5.3-1.3c0.9,0,1.9,0.2,2.7-0.1c0.6-0.2,1.1-0.7,1.7-0.9c1.3-0.4,2.8,0.2,4.1-0.1
    c1.5-0.4,2.3-2,3.8-2.4c1.6-0.4,3.2,0.7,4.9,0.6c0.7-0.1,1.3-0.3,2-0.3c0.8,0,1.5,0.3,2.3,0.3c0.9,0.1,1.8-0.2,2.7-0.1
    c1.4,0.1,2.5,1.1,3.4,2.2c0.3,0.3,0.5,0.7,0.6,1.1C51,21.1,50.3,21,49.4,21c-1.2,0-2.2,0.8-3.2,1.4c-2.1,1.3-4.7,1.1-7.1,0.7
    c-3-0.5-6-0.9-8.9-0.1c-1.4,0.4-2.6,1.1-4,1.3c-1.4,0.2-2.8-0.2-4.2-0.3c-1.3-0.1-2.5,0.1-3.8,0.2c-1.4,0.1-2.9-0.1-3.8-1.2
    c-0.6-0.7-0.9-1.8-1.7-2.3c-1.1-0.8-2.8-0.1-3.9-0.8c-0.4-0.3-0.7-0.8-0.9-1.3C8.9,21.7,15.8,18,24,18z"/>
  <path fill="#f0d6b9" d="M47,13.6c-1.1-0.9-3.5-1.3-4.8-1.5c-1.3-0.1-2.7,0-4,0.2c-2.6,0.3-5.3,0.5-7.6-0.6c-1.5-0.7-2.7-1.8-4.2-2.4
    c-1.5-0.6-3.1-0.6-4.6-0.1c-3.1,0.9-5.7,3.3-7,6.3c-0.2,0.5-0.4,1.1-0.3,1.6c0.1,0.5,0.4,0.9,0.8,1.3c0.8,0.8,2,1.1,3.1,1.1
    c1.1,0,2.2-0.2,3.3-0.3c2.3-0.1,4.6,0.3,6.8,0.7c2.2,0.5,4.5,0.9,6.7,0.6c2.3-0.3,4.5-1.4,6.8-1.9c2.3-0.5,5-0.1,6.2-2.3
    C48.8,14.9,47.9,14.3,47,13.6z"/>
</svg>